<svg width="8" height="14" viewBox="0 0 8 14" fill="none" xmlns="http://www.w3.org/2000/svg">
<path opacity="0.9" d="M2.39384 6.98769C2.5566 7.15187 2.70508 7.30321 2.85784 7.45454C4.46971 9.05927 6.08443 10.6611 7.69487 12.2673C8.23454 12.8055 8.0261 13.7036 7.30654 13.9377C6.90393 14.0691 6.54558 13.9734 6.24576 13.6764C5.44054 12.8769 4.63532 12.076 3.83153 11.2765C2.66082 10.1115 1.49439 8.94363 0.316544 7.78577C-0.0375246 7.43741 -0.0746447 6.86205 0.106673 6.50655C0.166636 6.38805 0.255153 6.27955 0.349381 6.18532C1.36447 5.17166 2.38242 4.16085 3.39894 3.14861C4.35407 2.1992 5.30634 1.25121 6.26004 0.303218C6.73832 -0.172204 7.51641 -0.075121 7.85906 0.50024C8.09605 0.895711 8.03038 1.39255 7.69059 1.73091C6.60697 2.81025 5.52192 3.88959 4.43687 4.9675C3.78013 5.61995 3.12482 6.27241 2.46808 6.92487C2.44666 6.94628 2.42239 6.96484 2.39384 6.98769Z" fill="white"/>
</svg>
