<svg width="8" height="13" viewBox="0 0 8 13" fill="none" xmlns="http://www.w3.org/2000/svg">
<path opacity="0.9" d="M5.60616 6.45232C5.4434 6.60392 5.29492 6.74366 5.14216 6.88341C3.53029 8.36519 1.91557 9.84433 0.305128 11.3274C-0.234541 11.8244 -0.0260973 12.6537 0.693461 12.8699C1.09607 12.9911 1.45442 12.9028 1.75424 12.6286C2.55946 11.8904 3.36468 11.1508 4.16847 10.4125C5.33918 9.33678 6.50561 8.2584 7.68346 7.18925C8.03752 6.86759 8.07464 6.33631 7.89333 6.00805C7.83336 5.89863 7.74485 5.79844 7.65062 5.71143C6.63553 4.77543 5.61758 3.84206 4.60106 2.90738C3.64593 2.0307 2.69366 1.15535 1.73996 0.279987C1.26168 -0.159011 0.48359 -0.0693656 0.140943 0.461914C-0.0960541 0.827086 -0.0303793 1.28586 0.309412 1.5983C1.39303 2.59494 2.47808 3.59158 3.56313 4.58691C4.21987 5.18938 4.87518 5.79184 5.53192 6.39431C5.55334 6.41409 5.57761 6.43123 5.60616 6.45232Z" fill="white"/>
</svg>
